<svg xmlns="http://www.w3.org/2000/svg" viewBox="0 0 24 24">
  <path d="M10.5 2L10.5 4.1953125C7.9131836 4.862095 6 7.2048001 6 10L6 16L4 18L4 19L20 19L20 18L18 16L18 10C18 7.2048001 16.086816 4.862095 13.5 4.1953125L13.5 2L10.5 2 z M 5.9082031 2.0820312C3.5352031 3.9100312 2 6.772 2 10L4 10C4 7.418 5.2289531 5.1280156 7.1269531 3.6660156L5.9082031 2.0820312 z M 18.091797 2.0820312L16.873047 3.6660156C18.771047 5.1280156 20 7.418 20 10L22 10C22 6.772 20.464797 3.9100312 18.091797 2.0820312 z M 10 20C10 21.1 10.9 22 12 22C13.1 22 14 21.1 14 20L10 20 z" fill="#D1D1D1" />
</svg>