<svg xmlns="http://www.w3.org/2000/svg" viewBox="0 0 64 64"><path fill="#f283a5" d="M51 52L50 44 43 38 35.63 34.27 39 22 37.42 14.42 35 10.38 42 9 49 13 51 22 48 30 45 33 51 36 60 42 61 50 60 53 51 52z"/><path fill="#ed7899" d="M51,48h6a4,4,0,0,1,4,4v0a1,1,0,0,1-1,1H51a0,0,0,0,1,0,0V48A0,0,0,0,1,51,48Z"/><path fill="#72caaf" d="M51,57.38a1,1,0,0,1-1,1H2a1,1,0,0,1-1-1v-8A9.37,9.37,0,0,1,6.3,41l10.07-6.73c2.55,3.21,5.91,5.5,9.63,5.5s7.08-2.29,9.63-5.5L45.7,41A9.37,9.37,0,0,1,51,49.41Z"/><path fill="#7dd8ba" d="M26,43c4.1,0,7.82-2.12,10.57-5.56a2,2,0,0,0-.7-3.06l-.23-.11c-2.55,3.21-5.91,5.5-9.63,5.5s-7.08-2.29-9.63-5.5l-.23.11a2,2,0,0,0-.7,3.06C18.18,40.88,21.9,43,26,43Z"/><path fill="#faefde" d="M13,19.75a13,13,0,0,1,26,0v2.17c0,7.64-6.12,17.33-13,17.33S13,29.56,13,21.92Z"/><path fill="#faefde" d="M29,19.55c0-5.68,4.93-10.3,11-10.3s11,4.62,11,10.3v1.72C51,27.32,45.82,35,40,35S29,27.32,29,21.27Z"/><path fill="#66bfa1" d="M47,54H5a4,4,0,0,0-4,4H1a1,1,0,0,0,1,1H50a1,1,0,0,0,1-1h0A4,4,0,0,0,47,54Z"/><path fill="#8d6c9f" d="M41 52a1 1 0 0 0-1 1v2a1 1 0 0 0 2 0V53A1 1 0 0 0 41 52zM46 52a1 1 0 0 0-1 1v2a1 1 0 0 0 2 0V53A1 1 0 0 0 46 52zM56 47v2a1 1 0 0 0 2 0V47a1 1 0 0 0-2 0zM36 52a1 1 0 0 0-1 1v2a1 1 0 0 0 2 0V53A1 1 0 0 0 36 52zM31 52a1 1 0 0 0-1 1v2a1 1 0 0 0 2 0V53A1 1 0 0 0 31 52zM26 52a1 1 0 0 0-1 1v2a1 1 0 0 0 2 0V53A1 1 0 0 0 26 52zM21 52a1 1 0 0 0-1 1v2a1 1 0 0 0 2 0V53A1 1 0 0 0 21 52zM16 52a1 1 0 0 0-1 1v2a1 1 0 0 0 2 0V53A1 1 0 0 0 16 52zM11 52a1 1 0 0 0-1 1v2a1 1 0 0 0 2 0V53A1 1 0 0 0 11 52zM6 52a1 1 0 0 0-1 1v2a1 1 0 0 0 2 0V53A1 1 0 0 0 6 52z"/><path fill="#faefde" d="M29,46H23a1,1,0,0,0,0,2h6a1,1,0,0,0,0-2Z"/><path fill="#8d6c9f" d="M57,38.21l-9.17-5.93c.31-.33.61-.68.89-1v0A15.55,15.55,0,0,0,52,22V20A12,12,0,0,0,40,8a11.85,11.85,0,0,0-5.13,1.17A14,14,0,0,0,12,20v2a21.87,21.87,0,0,0,3.7,11.33L5.49,39.25A11,11,0,0,0,0,48.77V57a3,3,0,0,0,3,3H49a3,3,0,0,0,3-3V54h7a3,3,0,0,0,3-3V47.44A11,11,0,0,0,57,38.21ZM14,20a12,12,0,0,1,24,0v2c0,7.05-5.65,16-12,16S14,29.05,14,22ZM50,57a1,1,0,0,1-1,1H3a1,1,0,0,1-1-1V48.77A9,9,0,0,1,6.49,41l10.39-6c2.4,3,5.54,5,9.11,5s6.72-2.09,9.11-5l10.39,6A9,9,0,0,1,50,48.77Zm10-6a1,1,0,0,1-1,1H52V50a1,1,0,0,0,1-1V47a1,1,0,0,0-1-1,1,1,0,0,0-.35.07,11,11,0,0,0-5.14-6.82L36.3,33.33A21.87,21.87,0,0,0,40,22V20a13.93,13.93,0,0,0-3.58-9.32A9.87,9.87,0,0,1,40,10,10,10,0,0,1,50,20v2a13.52,13.52,0,0,1-3.32,8.52l-.21.25a12.2,12.2,0,0,1-.92.91h0a10.38,10.38,0,0,1-1.69,1.23,1,1,0,1,0,1,1.73,12,12,0,0,0,1.42-1l9.61,6.22A9,9,0,0,1,60,47.44Z"/></svg>