<svg xmlns="http://www.w3.org/2000/svg" viewBox="0 0 48 48"><path fill="#f3ad20" d="M44.279,13.828c0,0,1.717,12.562-1,20.055c-3.62-1.285-15.929-0.862-15.929-0.862l0.534-19.325 L44.279,13.828z"/><path fill="#f3ad20" d="M31.451,13.417l6.737,3.229l1.313-1.25l3.044,2.93c0,0,1.831-1.779,1.539-3.99 c-0.292-2.211-1.042-5.078-3.667-5.582s-6.4-1.874-8.929,0.321C31.827,12.528,32.136,11.486,31.451,13.417z"/><path fill="#fcbf95" d="M33.54,30.563c0,0,2.825,2.031,5.626,0c-0.104-2.322-0.798-2.203,0.216-3.257 s3.642-4.056,3.38-8.743c-1.83-2.018-3.637-3.042-3.637-3.042l-1.212,0.943l-6.463-2.768c0,0-2.207,4.207-0.891,9.022 c1.514,3.16,3.168,5.084,3.168,5.084L33.54,30.563z"/><path fill="#ed488b" d="M32.877,33.05c0,0,0.539-0.118,0.816-1.802c1.357,0.212,4.679,0.286,5.509-0.246 c0.097,1.13-0.201,1.556,1.491,2.059s3.08,0.35,3.365,1.73c0.285,1.38,0.79,2.633-0.571,3.484 c-1.361,0.851-4.101,1.226-4.903,1.257"/><path fill="#d6e5e5" d="M8.168,38.575c-0.65-0.297-1.299-0.595-1.949-0.892c-0.455-0.209-0.966-0.483-1.068-0.974 c-0.088-0.425,0.177-0.844,0.485-1.151c0.73-0.729,2.344-1.202,2.76-2.146c0.081-0.065,0.305,0.11,0.371,0.19 c0.078,0.095,0.197,0.144,0.312,0.188c0.825,0.313,1.698,0.499,2.579,0.548"/><path fill="#9fdadf" d="M7.882,38.078c0,0,0.422-2.912,4.353-3.785c3.931-0.873,5.84-1.314,6.802-2.605 c1.171,0.792,5.588,4.351,10.359-0.148c1.542,1.148,5.348,1.582,8.538,2.531c2.441,2.262,2.73,3.408,2.658,4.804 c-0.837,1.078-2.805,3.33-5.218,4.132c-2.412,0.801-7.234,1.973-13.054,1.243S11.639,42.093,7.882,38.078z"/><path fill="#513620" d="M4.932,20.628c0,0-3.141-0.792-2.193-6.116s9.823-5.758,9.823-5.758s1.891-0.05,2.07,0.583 c-0.205,0.953-0.382,4.865,0.508,5.702c-1.311,0.629-3.22,1.678-6.29,0.914S4.356,16.831,4.932,20.628z"/><path fill="#a37b57" d="M17.712,24.343c0,0-1.713-2.655-2.009-9.499c-1.921,0.563-2.486,1.73-6.032,1.302 c-3.546-0.427-3.857-0.203-4.686,1.357c-0.051,1.017-0.079,2.062-0.046,3.1L3.89,20.192c0,0-0.994,1.079-0.749,2.412 c0.157,0.856,1.358,1.126,2.199,1.21c0.289,1.157,0.756,2.246,1.504,3.196c0.426,0.541,0.931,1.011,1.446,1.469 c0.297,1.454,0.602,3.503,0.318,4.857c4.112,1.009,2.835,1.164,5.31,0.592c1.916-0.443,2.212-0.503,2.249-0.507 c-0.003-0.013-0.554-2.542-0.68-4.722C16.675,27.562,17.391,25.967,17.712,24.343z"/><path fill="#fcbf95" d="M30.765,15.347c-0.004-0.171,0-0.328-0.006-0.503C30.417,5.458,25.324,7.5,25.324,7.5 s-8.227-0.125-9.401,6.083c0,0-0.075,0.84-0.044,2.134c-1.004,0.641-2.343,1.86-1.874,3.639c0.454,1.723,1.795,2.13,2.733,2.194 c0.455,1.584,1.133,3.194,2.164,4.617c0.262,0.361,0.517,0.678,0.769,0.971c0.28,2.105-0.342,3.329-0.769,4.676 c5.37,3.939,8.449,1.261,10.38-0.032c-0.742-1.084-0.97-3.626-1.036-5.453c0.781-1.14,1.592-2.802,2.08-5.241 c1.014-0.406,2.126-1.186,2.136-2.67C32.471,17.056,31.62,16.032,30.765,15.347z"/><path fill="#f26322" d="M15.43,15.56c-1.672-2.734-1.41-6.515,0.623-8.992c2.002-2.44,5.26-3.429,8.369-3.978 c-0.252,0.371-0.453,0.777-0.596,1.202c0.495,0.127,0.972-0.226,1.467-0.351s1.202,0.298,0.945,0.74 c-0.141,0.243-0.53,0.36-0.5,0.639c0.015,0.142,0.143,0.242,0.265,0.316c1.091,0.672,2.481,0.708,3.582,1.364 c1.667,0.993,2.249,3.132,2.322,5.071c0.057,1.517-0.756,2.479-1.134,3.949c0,0,1.203-3.502-1.723-5.402 c-1.895-1.869-2.023-1.384-3.304-0.846c-1.281,0.538-2.452,1.091-4.084-0.169c-2.57,0.864-5.766,1.98-5.96,4.459 C15.508,16.041,15.43,15.56,15.43,15.56z"/><path fill="#010101" d="M18.62,16.684c-0.255,0-0.473-0.193-0.497-0.452c-0.026-0.275,0.175-0.52,0.45-0.546 c0.667-0.063,1.341-0.084,2.007-0.065c0.276,0.009,0.493,0.239,0.485,0.515c-0.008,0.277-0.242,0.509-0.515,0.485 c-0.622-0.02-1.256,0.001-1.882,0.062C18.652,16.683,18.636,16.684,18.62,16.684z"/><path fill="#010101" d="M27.884,16.452c-0.029,0-0.059-0.003-0.089-0.008c-0.787-0.143-1.219-0.165-2.011-0.106 c-0.282,0.021-0.515-0.188-0.535-0.463c-0.021-0.275,0.187-0.515,0.462-0.535c0.88-0.063,1.388-0.037,2.262,0.12 c0.271,0.049,0.452,0.31,0.403,0.581C28.332,16.282,28.122,16.452,27.884,16.452z"/><path fill="#010101" d="M24.248,22.719c-0.041,0-0.081-0.005-0.122-0.015l-0.374-0.086c-0.573-0.029-1.043-0.42-1.227-0.975 c-0.14-0.421-0.106-0.855-0.078-1.205l0.316-3.975c0.022-0.276,0.253-0.474,0.538-0.459c0.275,0.021,0.48,0.263,0.459,0.537 l-0.316,3.977c-0.023,0.285-0.046,0.58,0.03,0.81c0.051,0.154,0.172,0.283,0.271,0.289c0.206,0.01,0.241,0.017,0.395,0.058 l0.229,0.059c0.268,0.067,0.431,0.339,0.363,0.606C24.675,22.567,24.471,22.719,24.248,22.719z"/><path fill="#010101" d="M23.615,25.352c-0.606,0-1.212-0.143-1.755-0.428c-0.245-0.128-0.339-0.431-0.21-0.675 c0.129-0.243,0.432-0.338,0.675-0.21c0.8,0.42,1.83,0.41,2.623-0.021c0.243-0.134,0.546-0.044,0.679,0.199 c0.132,0.242,0.043,0.546-0.199,0.678C24.87,25.199,24.243,25.352,23.615,25.352z"/><path fill="#010101" d="M7.499,20.995c-0.24,0-0.452-0.173-0.493-0.417c-0.045-0.272,0.138-0.53,0.411-0.576 c0.769-0.129,1.552-0.138,2.326-0.026c0.273,0.04,0.463,0.293,0.424,0.566S9.88,20.999,9.6,20.966 c-0.671-0.097-1.35-0.089-2.018,0.022C7.554,20.993,7.526,20.995,7.499,20.995z"/><path fill="#010101" d="M13.917,20.917H13.25c-0.276,0-0.5-0.224-0.5-0.5s0.224-0.5,0.5-0.5h0.667 c0.276,0,0.5,0.224,0.5,0.5S14.193,20.917,13.917,20.917z"/><path fill="#010101" d="M12.235,25.677c-0.126,0-0.25-0.048-0.343-0.136c-0.037,0.002-0.08,0.007-0.114,0.011 c-0.101,0.011-0.205,0.016-0.295,0.019c-0.522-0.011-1.004-0.409-1.172-0.97c-0.127-0.424-0.072-0.843,0.008-1.231 c0.131-0.646,0.328-1.277,0.585-1.879c0.108-0.254,0.404-0.371,0.656-0.264c0.254,0.108,0.372,0.402,0.264,0.656 c-0.23,0.54-0.407,1.107-0.525,1.686c-0.053,0.262-0.093,0.532-0.029,0.745c0.045,0.151,0.163,0.249,0.247,0.257 c0.05,0,0.102-0.007,0.154-0.013c0.24-0.024,0.745-0.081,1.001,0.374c0.135,0.241,0.049,0.546-0.191,0.681 C12.402,25.656,12.318,25.677,12.235,25.677z"/><path fill="#010101" d="M11.917,28.014c-0.615,0-1.231-0.165-1.755-0.493c-0.234-0.147-0.304-0.456-0.157-0.689 c0.146-0.233,0.455-0.305,0.689-0.158c0.712,0.449,1.709,0.453,2.426,0.012c0.235-0.147,0.543-0.072,0.688,0.164 c0.145,0.234,0.071,0.543-0.164,0.688C13.127,27.854,12.522,28.014,11.917,28.014z"/><path fill="#010101" d="M39.5,19.667h-0.917c-0.276,0-0.5-0.224-0.5-0.5s0.224-0.5,0.5-0.5H39.5c0.276,0,0.5,0.224,0.5,0.5 S39.776,19.667,39.5,19.667z"/><path fill="#010101" d="M33.161,19.567c-0.207,0-0.401-0.13-0.473-0.336c-0.03-0.087-0.035-0.177-0.018-0.261 c-0.023-0.248,0.142-0.479,0.392-0.534c0.32-0.072,0.665-0.033,0.963,0.109c0.222,0.104,0.335,0.354,0.268,0.59 c-0.068,0.236-0.296,0.395-0.541,0.358c-0.142-0.014-0.291-0.002-0.428,0.046C33.271,19.559,33.215,19.567,33.161,19.567z"/><path fill="#010101" d="M36.498,23.672c-0.058,0-0.117-0.01-0.175-0.031c-0.015,0.003-0.106,0.008-0.166,0.014 c-0.215,0.023-0.719,0.072-0.958-0.39c-0.097-0.186-0.089-0.369-0.085-0.468c0.035-1.021,0.195-2.037,0.476-3.02 c0.076-0.267,0.355-0.423,0.618-0.343c0.266,0.075,0.419,0.353,0.344,0.618c-0.242,0.846-0.387,1.72-0.431,2.6 c0.158-0.014,0.355-0.022,0.552,0.051c0.259,0.097,0.39,0.385,0.293,0.644C36.892,23.548,36.701,23.672,36.498,23.672z"/><path fill="#010101" d="M35.847,26.139c-0.329,0-0.658-0.082-0.95-0.248c-0.24-0.137-0.324-0.442-0.187-0.682 c0.137-0.24,0.441-0.323,0.682-0.188c0.306,0.175,0.734,0.149,1.015-0.063c0.222-0.166,0.535-0.12,0.7,0.101 c0.166,0.222,0.12,0.535-0.101,0.7C36.67,26.011,36.258,26.139,35.847,26.139z"/><path fill="#010101" d="M44.784,29.045c0.056-0.613,0.117-1.229,0.178-1.848c0.529-5.375,1.069-10.918-0.969-15.787 c-0.013-0.037-0.022-0.075-0.035-0.112c-0.136-0.366-0.288-0.665-0.449-0.938c-0.017-0.034-0.031-0.068-0.048-0.101 c-0.014-0.026-0.036-0.044-0.054-0.066c-0.737-1.127-1.749-1.498-3.252-2.028c-0.691-0.244-2.087-0.548-2.818-0.614 c-0.945-0.085-1.92-0.172-2.903-0.085c-1.064,0.094-1.968,0.394-2.707,0.874c-0.384-0.887-0.966-1.72-1.886-2.268 c-0.6-0.357-1.256-0.542-1.891-0.721c-0.548-0.155-1.07-0.302-1.577-0.585c0.101-0.084,0.213-0.188,0.297-0.334 c0.184-0.316,0.16-0.685-0.066-0.984c-0.307-0.407-0.923-0.616-1.433-0.491c-0.167,0.042-0.333,0.106-0.499,0.173 c0.051-0.088,0.105-0.174,0.163-0.259c0.112-0.166,0.115-0.384,0.005-0.552c-0.109-0.169-0.311-0.255-0.506-0.221 c-2.641,0.466-6.412,1.404-8.668,4.153c-0.573,0.698-1.004,1.497-1.309,2.344c-1.08-0.539-2.329-0.39-3.525-0.128 C9.888,8.672,8.942,8.916,8.02,9.19c-0.835,0.249-1.719,0.545-2.53,1.014c-1.566,0.909-2.745,2.43-3.232,4.173 s-0.271,3.654,0.597,5.244c0.104,0.19,0.215,0.357,0.33,0.513c-0.296,0.615-0.484,1.291-0.534,1.971 c-0.053,0.717,0.109,1.259,0.481,1.611c0.359,0.342,0.795,0.428,1.145,0.496c0.33,0.064,0.521,0.109,0.634,0.261 C4.949,24.524,5,24.557,5.051,24.59c0.31,0.975,0.746,1.9,1.4,2.73c0.297,0.377,0.63,0.718,0.981,1.053 c0.01,0.024,0.014,0.05,0.028,0.073c0.382,0.6,0.563,1.097,0.666,1.835c0.126,0.896,0.125,1.805,0.018,2.706 c-0.021,0.013-0.043,0.022-0.063,0.038c-0.062,0.05-0.11,0.113-0.142,0.186c-0.185,0.42-0.8,0.777-1.396,1.122 c-0.455,0.264-0.924,0.536-1.26,0.872c-0.51,0.509-0.73,1.079-0.622,1.606c0.163,0.782,0.964,1.15,1.349,1.326l1.949,0.893 c0.026,0.012,0.053,0.01,0.079,0.017c2.058,2.066,4.854,3.662,8.118,4.615c2.653,0.776,5.671,1.175,9.498,1.256 c0.38,0.008,0.783,0.014,1.205,0.014c1.721,0,3.743-0.096,5.712-0.521c2.55-0.55,4.681-1.563,6.332-3.011 c0.176-0.154,0.347-0.314,0.519-0.475c0.488-0.456,0.95-0.887,1.494-1.159c0.009-0.004,0.014-0.012,0.022-0.017 c0.054-0.002,0.109-0.01,0.161-0.031c0.282-0.109,0.573-0.193,0.863-0.278c0.416-0.121,0.845-0.246,1.261-0.44 c0.939-0.438,1.562-1.184,1.666-1.995c0.053-0.411-0.026-0.799-0.097-1.142l-0.19-0.927c-0.038-0.184-0.08-0.393-0.176-0.6 c-0.105-0.228-0.253-0.408-0.423-0.56c0.134-0.786,0.281-1.572,0.445-2.352C44.619,30.61,44.706,29.884,44.784,29.045z M32.13,9.261c0.62-0.445,1.425-0.714,2.392-0.8c0.895-0.078,1.825,0.005,2.725,0.085c0.644,0.058,1.967,0.347,2.623,0.578 c1.419,0.501,2.181,0.781,2.735,1.664c0.157,0.306,0.301,0.616,0.434,0.929c0.211,0.598,0.315,1.234,0.397,2.005 c0.18,1.71-0.109,3.005-0.832,3.982c-0.043-0.017-0.086-0.037-0.134-0.041c-0.096-0.01-0.246-0.278-0.345-0.456l-0.124-0.215 c-0.437-0.722-1.133-1.131-1.806-1.526c-0.104-0.061-0.204-0.124-0.306-0.186c0.491-0.781,0.973-1.771,1.338-2.92 c0.083-0.263-0.062-0.544-0.325-0.628c-0.262-0.082-0.544,0.062-0.628,0.325c-0.646,2.031-1.581,3.309-2.121,3.843 c-1.833-0.602-4.104-1.564-6.004-2.547c-0.012-0.006-0.025-0.005-0.037-0.011c0.185-0.537,0.322-1.112,0.296-1.789 c-0.023-0.614-0.113-1.429-0.343-2.263C32.086,9.279,32.11,9.275,32.13,9.261z M40.577,25.06c-0.806,1.354-1.688,2.34-2.621,2.929 c-0.94,0.593-2.043,0.708-2.812,0.292c-0.196-0.106-0.385-0.252-0.543-0.381c-1.919-1.562-3.27-3.781-3.803-6.249 c-0.006-0.029-0.023-0.051-0.034-0.077c0.717-0.384,1.331-0.974,1.729-1.683c0.168-0.299,0.293-0.606,0.372-0.914 c0.356-1.394-0.293-2.925-1.493-3.688c0.114-0.354,0.244-0.693,0.38-1.016c2.029,1.044,4.461,2.065,6.369,2.668 c0.049,0.016,0.1,0.023,0.151,0.023c0.112,0,0.222-0.037,0.312-0.109c0.223-0.178,0.471-0.437,0.727-0.757 c0.125,0.077,0.25,0.154,0.377,0.229c0.592,0.348,1.151,0.677,1.458,1.182l0.105,0.185c0.198,0.355,0.475,0.816,1.008,0.929 C42.288,21.595,42.199,22.333,40.577,25.06z M38.595,29.974c0.033,0.236,0.054,0.451,0.073,0.664 c-0.736,0.214-1.491,0.352-2.252,0.392c-0.928,0.046-1.626-0.079-2.158-0.37c0.058-0.627,0.046-1.212-0.039-1.793 c0.138,0.102,0.284,0.204,0.449,0.293c0.489,0.265,1.007,0.373,1.515,0.373c0.856,0,1.687-0.308,2.306-0.698 c0.018-0.011,0.035-0.028,0.053-0.039C38.537,29.251,38.558,29.703,38.595,29.974z M32.718,32.513 c-1.107-0.219-2.184-0.662-3.131-1.277c-0.435-1.397-0.979-3.224-0.83-4.648c0.67-1.062,1.111-2.243,1.417-3.464 c0.569,1.716,1.51,3.28,2.745,4.568c0.408,1.248,0.484,2.172,0.28,3.477c-0.013,0.081-0.024,0.189-0.038,0.314 c-0.029,0.271-0.088,0.772-0.207,1.066C32.876,32.536,32.795,32.528,32.718,32.513z M21.499,37.433 c-0.971-0.471-1.949-0.972-2.777-1.641c-0.844-0.682-1.423-1.307-1.705-2.121c0.755-0.27,1.475-0.639,2.135-1.164 c1.131,0.814,2.1,1.326,3.086,1.611c0.358,0.103,0.723,0.167,1.092,0.209c-0.367,0.553-0.692,1.129-1.001,1.691 C22.067,36.492,21.792,36.972,21.499,37.433z M11.851,33.88c-0.051-0.022-0.105-0.039-0.164-0.042 c-0.832-0.046-1.649-0.22-2.428-0.516c-0.027-0.011-0.099-0.038-0.106-0.04c-0.008-0.009-0.018-0.018-0.026-0.027 c0.136-1.036,0.135-2.083-0.01-3.113c-0.019-0.135-0.046-0.255-0.071-0.38c0.162,0.119,0.322,0.241,0.502,0.344 c0.688,0.395,1.489,0.587,2.313,0.587c1.165,0,2.371-0.393,3.37-1.133c-0.029,1.259,0.17,2.641,0.347,3.5 c-0.541,0.135-1.099,0.248-1.669,0.36C13.223,33.554,12.529,33.693,11.851,33.88z M15.266,16.906 c0.105,1.271,0.362,2.595,0.751,3.962c-0.532-0.158-1.009-0.377-1.255-0.768c-0.066-0.104-0.124-0.237-0.174-0.404 C14.296,18.736,14.589,17.641,15.266,16.906z M16.411,13.123c0.498-1.774,2.239-2.462,4.084-3.188l0.68-0.271 c0.219-0.09,0.296-0.098,0.324-0.088c0.037,0.013,0.119,0.095,0.178,0.154l0.116,0.114c0.664,0.614,1.718,0.778,2.819,0.443 c0.472-0.144,0.907-0.352,1.328-0.554c0.318-0.151,0.636-0.305,0.965-0.424c0.163-0.06,0.214-0.061,0.229-0.058 c0.033,0.016,0.112,0.104,0.15,0.148c0.186,0.21,0.475,0.411,0.841,0.666c0.936,0.652,2.217,1.545,2.218,2.921 c-0.077,2.435-0.294,4.893-0.647,7.306c-0.316,2.158-0.78,4.396-2.025,6.136c-1.083,1.515-3.206,2.88-5.299,2.308 c-1.614-0.442-2.913-1.886-4.087-4.542C16.467,20.088,15.837,16.362,16.411,13.123z M30.684,20.449 c0-0.003,0.001-0.006,0.001-0.009c0.198-1.348,0.344-2.71,0.457-4.075c0.639,0.583,0.969,1.523,0.754,2.364 c-0.057,0.224-0.149,0.449-0.275,0.672C31.391,19.811,31.065,20.169,30.684,20.449z M22.515,33.157 c-0.849-0.245-1.702-0.696-2.701-1.405c0.322-1.053,0.41-2.119,0.267-3.163c0.581,0.495,1.243,0.9,2.026,1.115 c0.399,0.109,0.813,0.162,1.232,0.162c1.561,0,3.191-0.743,4.432-2.017c0.124,1.258,0.513,2.568,0.848,3.643 C27.091,33.103,24.65,33.776,22.515,33.157z M17.878,25.658c0.174,0.337,0.365,0.678,0.578,1.016c0.763,1.525,0.894,3.18,0.398,4.8 c-0.005,0.003-0.009,0.009-0.014,0.012c-0.014,0.01-0.031,0.014-0.044,0.026c-0.665,0.603-1.429,0.989-2.254,1.27 c-0.275-1.366-0.424-3.186-0.203-4.265C17.001,27.73,17.521,26.756,17.878,25.658z M24.409,34.369 c1.821-0.07,3.616-0.828,4.889-2.141c0.69,0.418,1.432,0.762,2.205,1.003c-0.443,0.844-1.473,1.909-2.399,2.707 c-0.743,0.641-1.615,1.159-2.481,1.649L24.409,34.369z M16.439,6.886c1.778-2.167,4.684-3.109,7.045-3.606 c-0.048,0.116-0.093,0.234-0.133,0.354c-0.044,0.132-0.032,0.275,0.035,0.397c0.066,0.122,0.18,0.211,0.314,0.246 c0.49,0.127,0.94-0.055,1.299-0.201c0.137-0.056,0.274-0.114,0.415-0.148c0.1-0.027,0.239,0.018,0.323,0.066 c-0.019,0.016-0.039,0.032-0.056,0.046c-0.171,0.138-0.488,0.396-0.44,0.836c0.045,0.405,0.386,0.617,0.5,0.688 c0.612,0.377,1.286,0.566,1.938,0.75c0.599,0.169,1.164,0.328,1.65,0.618c1.694,1.009,2.03,3.353,2.079,4.659 c0.013,0.353-0.036,0.67-0.111,0.978c-0.225-1.647-1.689-2.685-2.602-3.321c-0.287-0.199-0.557-0.388-0.662-0.507 c-0.116-0.132-0.292-0.332-0.565-0.43c-0.329-0.115-0.639-0.035-0.903,0.06c-0.361,0.131-0.709,0.296-1.057,0.463 c-0.405,0.193-0.788,0.377-1.188,0.498c-0.586,0.179-1.378,0.215-1.847-0.22l-0.087-0.085c-0.135-0.137-0.303-0.306-0.561-0.396 c-0.416-0.144-0.816,0.02-1.03,0.107l-0.667,0.266c-1.905,0.751-4.065,1.601-4.688,3.87c-0.002,0.008,0,0.015-0.002,0.023 c-0.002,0.008-0.007,0.014-0.009,0.022c-0.067,0.375-0.113,0.758-0.15,1.144C14.42,11.686,14.828,8.849,16.439,6.886z M3.221,14.646c0.418-1.494,1.429-2.798,2.771-3.577c0.72-0.417,1.538-0.688,2.314-0.92c0.898-0.269,1.819-0.506,2.738-0.706 c1.067-0.231,2.168-0.38,2.991,0.105c0.011,0.006,0.023,0.006,0.035,0.012c-0.407,1.752-0.265,3.631,0.442,5.28 c-1.139,0.497-2.406,1.021-3.664,0.956c-0.419-0.018-0.836-0.096-1.279-0.178c-0.365-0.068-0.729-0.137-1.098-0.173 c-0.677-0.064-1.361-0.027-2.028,0.115c-0.885,0.19-1.862,0.744-1.947,1.729c-0.003,0.036,0.007,0.069,0.012,0.104 c-0.006,0.028-0.02,0.054-0.021,0.084c-0.041,0.829-0.07,1.665-0.065,2.496c-0.242-0.166-0.474-0.438-0.689-0.832 C2.989,17.779,2.802,16.141,3.221,14.646z M4.47,23.23c-0.269-0.053-0.5-0.098-0.649-0.239c-0.18-0.171-0.193-0.536-0.173-0.813 c0.033-0.449,0.158-0.887,0.324-1.308c0.156,0.093,0.317,0.165,0.485,0.212c0.039,0.75,0.125,1.486,0.263,2.204 C4.634,23.265,4.549,23.246,4.47,23.23z M7.237,26.7c-1.917-2.434-1.917-5.865-1.752-9.173c0.001-0.029-0.009-0.055-0.013-0.083 c0.005-0.023,0.017-0.043,0.019-0.067c0.036-0.414,0.609-0.719,1.161-0.837c0.567-0.121,1.147-0.155,1.72-0.098 c0.34,0.033,0.676,0.097,1.012,0.159c0.458,0.086,0.931,0.174,1.421,0.195c1.485,0.056,2.902-0.516,4.154-1.061 c0.014,0.023,0.022,0.049,0.036,0.072c-1.23,0.953-1.818,2.687-1.365,4.181c0.078,0.254,0.171,0.466,0.285,0.646 c0.532,0.849,1.5,1.136,2.446,1.357c0.001,0,0.002,0,0.002,0c0.247,0.739,0.531,1.489,0.858,2.252c0,0.001-0.001,0.002-0.001,0.003 c-0.379,1.917-1.268,3.5-2.501,4.457c-1.403,1.087-3.324,1.308-4.675,0.535c-0.412-0.236-0.796-0.573-1.134-0.87 C8.271,27.807,7.703,27.293,7.237,26.7z M5.642,36.607c-0.038-0.181,0.093-0.44,0.348-0.695c0.244-0.244,0.639-0.473,1.056-0.715 c0.559-0.324,1.132-0.656,1.514-1.114c0.125,0.09,0.255,0.14,0.344,0.174c0.362,0.137,0.735,0.236,1.11,0.326 c-0.583,0.301-1.135,0.677-1.631,1.183c-0.502,0.513-0.767,1.254-0.948,1.923l-1.006-0.461C6.069,37.063,5.694,36.86,5.642,36.607z M8.548,38.148c-0.05-0.052-0.108-0.089-0.17-0.115c0.153-0.585,0.357-1.198,0.719-1.568c1.311-1.34,3.105-1.692,5.005-2.065 c0.645-0.127,1.297-0.258,1.938-0.428c0.396,1.177,1.258,1.954,2.054,2.597c1.033,0.835,2.223,1.406,3.373,1.959 c0.016,0.008,0.032,0.005,0.048,0.011c0.042,0.015,0.083,0.026,0.127,0.029c0.014,0.001,0.028,0.01,0.042,0.01 c0.011,0,0.02-0.008,0.031-0.009c0.076-0.005,0.151-0.023,0.218-0.062c0.005-0.003,0.011-0.003,0.016-0.006 c0.056-0.035,0.107-0.081,0.147-0.139c0.416-0.604,0.768-1.243,1.109-1.861c0.059-0.107,0.118-0.204,0.175-0.309 c-0.023,0.45-0.051,0.902-0.08,1.362l-0.391,6.073c-0.004,0.058,0.008,0.112,0.023,0.165c-2.484-0.179-4.591-0.534-6.493-1.09 C13.23,41.766,10.502,40.191,8.548,38.148z M38.739,40.195c-0.164,0.153-0.328,0.307-0.495,0.453 c-1.522,1.335-3.501,2.271-5.884,2.785c-2.348,0.506-4.807,0.523-6.684,0.484c-0.628-0.013-1.226-0.038-1.811-0.069 c0.02-0.049,0.037-0.1,0.041-0.156l0.392-6.1c0.032-0.498,0.061-0.997,0.085-1.496l1.673,2.432 c0.097,0.141,0.252,0.217,0.413,0.217c0.083,0,0.167-0.021,0.244-0.063c1.037-0.582,2.109-1.183,3.043-1.987 c0.831-0.717,2.197-2.018,2.736-3.21c0.011,0.002,0.021,0.006,0.032,0.008c0.608,0.12,1.236,0.187,1.844,0.25 c1.404,0.147,2.731,0.286,3.763,1.041c0.294,0.215,0.573,0.49,0.829,0.818c0.77,0.985,1.162,2.25,1.114,3.499 C39.579,39.418,39.152,39.81,38.739,40.195z M42.801,38.094c-0.347,0.161-0.721,0.271-1.118,0.387 c-0.209,0.061-0.414,0.133-0.621,0.202c-0.048-1.33-0.494-2.647-1.314-3.695c-0.313-0.4-0.658-0.74-1.026-1.01 c-1.25-0.915-2.774-1.074-4.249-1.229c-0.169-0.018-0.34-0.038-0.51-0.057c0.086-0.296,0.139-0.628,0.178-0.976 c0.533,0.215,1.155,0.325,1.888,0.325c0.143,0,0.29-0.004,0.441-0.013c0.762-0.04,1.518-0.178,2.259-0.378 c0.023,0.68,0.252,1.151,0.695,1.388c0.923,0.494,1.675,0.696,2.674,0.964c0.604,0.163,1.227,0.331,1.422,0.754 c0.047,0.103,0.075,0.238,0.104,0.382l0.19,0.927c0.057,0.278,0.116,0.566,0.084,0.813C43.837,37.347,43.427,37.802,42.801,38.094z M43.966,27.1c-0.061,0.62-0.122,1.238-0.179,1.854c-0.074,0.805-0.157,1.498-0.318,2.266c-0.143,0.68-0.267,1.363-0.387,2.047 c-0.258-0.093-0.52-0.173-0.773-0.241c-0.924-0.249-1.593-0.428-2.414-0.867c-0.154-0.083-0.176-0.422-0.176-0.617 c0-0.482-0.044-1.056-0.133-1.702c-0.061-0.452-0.061-1.441,0.013-1.905c0.65-0.625,1.267-1.403,1.837-2.362 c1.697-2.854,1.854-3.731,1.822-7.047c0.469-0.566,0.81-1.23,1.009-1.996C44.671,19.936,44.315,23.555,43.966,27.1z"/><path fill="#010101" d="M25.423,40.889c-0.053,0-0.108-0.008-0.162-0.024c-0.041-0.013-0.079-0.03-0.113-0.052 c-0.095-0.022-0.184-0.073-0.252-0.151c-0.18-0.205-0.171-0.508,0.03-0.691c0.265-0.242,0.516-0.212,0.642-0.173 c0.126,0.039,0.25,0.17,0.311,0.287c0.062,0.118,0.091,0.298,0.052,0.424C25.858,40.742,25.651,40.889,25.423,40.889z"/></svg>