<svg xmlns="http://www.w3.org/2000/svg" viewBox="0 0 16 16">
  <path d="M2.5 2 A 0.50005 0.50005 0 0 0 2 2.5L2 4.5 A 0.50005 0.50005 0 0 0 2.5 5L4.5 5 A 0.50005 0.50005 0 0 0 5 4.5L5 2.5 A 0.50005 0.50005 0 0 0 4.5 2L2.5 2 z M 6.5 2 A 0.50005 0.50005 0 0 0 6 2.5L6 4.5 A 0.50005 0.50005 0 0 0 6.5 5L8.5 5 A 0.50005 0.50005 0 0 0 9 4.5L9 2.5 A 0.50005 0.50005 0 0 0 8.5 2L6.5 2 z M 10.5 2 A 0.50005 0.50005 0 0 0 10 2.5L10 4.5 A 0.50005 0.50005 0 0 0 10.5 5L12.5 5 A 0.50005 0.50005 0 0 0 13 4.5L13 2.5 A 0.50005 0.50005 0 0 0 12.5 2L10.5 2 z M 3 3L4 3L4 4L3 4L3 3 z M 7 3L8 3L8 4L7 4L7 3 z M 11 3L12 3L12 4L11 4L11 3 z M 2.5 6 A 0.50005 0.50005 0 0 0 2 6.5L2 8.5 A 0.50005 0.50005 0 0 0 2.5 9L4.5 9 A 0.50005 0.50005 0 0 0 5 8.5L5 6.5 A 0.50005 0.50005 0 0 0 4.5 6L2.5 6 z M 6.5 6 A 0.50005 0.50005 0 0 0 6 6.5L6 8.5 A 0.50005 0.50005 0 0 0 6.5 9L8.5 9 A 0.50005 0.50005 0 0 0 9 8.5L9 6.5 A 0.50005 0.50005 0 0 0 8.5 6L6.5 6 z M 10.5 6 A 0.50005 0.50005 0 0 0 10 6.5L10 8.5 A 0.50005 0.50005 0 0 0 10.5 9L12.5 9 A 0.50005 0.50005 0 0 0 13 8.5L13 6.5 A 0.50005 0.50005 0 0 0 12.5 6L10.5 6 z M 3 7L4 7L4 8L3 8L3 7 z M 7 7L8 7L8 8L7 8L7 7 z M 11 7L12 7L12 8L11 8L11 7 z M 2.5 10 A 0.50005 0.50005 0 0 0 2 10.5L2 12.5 A 0.50005 0.50005 0 0 0 2.5 13L4.5 13 A 0.50005 0.50005 0 0 0 5 12.5L5 10.5 A 0.50005 0.50005 0 0 0 4.5 10L2.5 10 z M 6.5 10 A 0.50005 0.50005 0 0 0 6 10.5L6 12.5 A 0.50005 0.50005 0 0 0 6.5 13L8.5 13 A 0.50005 0.50005 0 0 0 9 12.5L9 10.5 A 0.50005 0.50005 0 0 0 8.5 10L6.5 10 z M 10.5 10 A 0.50005 0.50005 0 0 0 10 10.5L10 12.5 A 0.50005 0.50005 0 0 0 10.5 13L12.5 13 A 0.50005 0.50005 0 0 0 13 12.5L13 10.5 A 0.50005 0.50005 0 0 0 12.5 10L10.5 10 z M 3 11L4 11L4 12L3 12L3 11 z M 7 11L8 11L8 12L7 12L7 11 z M 11 11L12 11L12 12L11 12L11 11 z" fill="#FFFFFF" />
</svg>