<svg xmlns="http://www.w3.org/2000/svg" viewBox="0 0 50 50">
  <path d="M23 3 A 1.0001 1.0001 0 0 0 22 4L22 11.763672L17.105469 21.552734 A 1.0001 1.0001 0 0 0 17 22L17 20 A 1.0001 1.0001 0 0 0 16 19L3 19 A 1.0001 1.0001 0 0 0 2.0078125 20.125L5.0078125 44.125 A 1.0001 1.0001 0 0 0 6 45L16 45 A 1.0001 1.0001 0 0 0 17 44L17 43L18 43L18.146484 43 A 1.0001 1.0001 0 0 0 18.164062 43.050781C18.621185 44.269779 19.783333 45 21 45L40 45C42.209804 45 44 43.209804 44 41C44 40.177778 43.738127 39.419665 43.357422 38.785156 A 1.0001 1.0001 0 0 0 43.34375 38.763672L43.328125 38.740234C44.915804 38.204356 46 36.705266 46 35C46 34.127133 45.741749 33.171938 45.039062 32.441406 A 1.0001 1.0001 0 0 0 45.046875 32.435547 A 1.0001 1.0001 0 0 0 45.054688 32.431641C46.210728 31.660999 47 30.4 47 29C47 28.124995 46.741803 27.16674 46.035156 26.435547C46.037656 26.434047 46.038516 26.431287 46.041016 26.429688C47.272006 25.67527 48 24.390014 48 23C48 20.790196 46.209804 19 44 19L29.400391 19L29.353516 19L29.353516 18.998047L29.355469 18.994141C30.36304 15.76952 31 13.462911 31 12C31 10.045098 30.296713 7.9428791 29.333984 6.234375C28.85262 5.3801229 28.306174 4.6278306 27.693359 4.046875C27.080545 3.4659194 26.378509 3 25.5 3L23 3 z M 24 5L25.5 5C25.57149 5 25.907346 5.1102524 26.316406 5.4980469C26.725467 5.8858413 27.185661 6.4960489 27.591797 7.2167969C28.404068 8.6582928 29 10.554902 29 12C29 12.736364 28.436821 15.229518 27.445312 18.402344 A 1.0001 1.0001 0 0 0 27.443359 18.40625L27.044922 19.705078 A 1.0001 1.0001 0 0 0 28 21L29.400391 21L44 21C45.190196 21 46 21.809804 46 23C46 23.79697 45.734124 24.29351 44.986328 24.742188L43.986328 25.341797 A 1.0001 1.0001 0 0 0 43.751953 26.865234L44.552734 27.763672 A 1.0001 1.0001 0 0 0 44.59375 27.806641C44.858044 28.070937 45 28.490476 45 29C45 29.599511 44.588392 30.336148 43.945312 30.765625C43.945312 30.765625 43.945312 30.767578 43.945312 30.767578L42.986328 31.341797 A 1.0001 1.0001 0 0 0 42.751953 32.865234L43.552734 33.763672 A 1.0001 1.0001 0 0 0 43.59375 33.806641C43.858044 34.07089 44 34.490476 44 35C44 35.889744 43.488309 36.583324 42.683594 36.851562L41.484375 37.251953 A 1.0001 1.0001 0 0 0 40.957031 38.736328L41.642578 39.814453C41.861873 40.179944 42 40.622222 42 41C42 42.190196 41.190196 43 40 43L21 43C20.618456 43 20.185955 42.731707 20.041016 42.353516L19.861328 41.724609 A 1.0001 1.0001 0 0 0 18.900391 41L18.199219 41L18 41L17 41L17 24L18 24 A 1.0001 1.0001 0 0 0 19 23L19 22.236328L23.794922 12.646484L23.894531 12.447266 A 1.0001 1.0001 0 0 0 24 12L24 11.800781L24 5 z M 4.1328125 21L15 21L15 23L15 42L15 43L6.8828125 43L4.1328125 21 z M 11.5 37 A 1.5 1.5 0 0 0 11.5 40 A 1.5 1.5 0 0 0 11.5 37 z" fill="#D1D1D1" />
</svg>