<svg xmlns="http://www.w3.org/2000/svg" viewBox="0 0 16 16">
  <path d="M8 1C7.453125 1 7 1.453125 7 2L7 3.140625C5.28125 3.589844 4 5.144531 4 7L4 10.984375C4 10.984375 3.984375 11.261719 3.851563 11.519531C3.71875 11.78125 3.558594 12 3 12L3 13L13 13L13 12C12.40625 12 12.253906 11.78125 12.128906 11.53125C12.003906 11.277344 12 11.003906 12 11.003906L12 7C12 5.144531 10.71875 3.589844 9 3.140625L9 2C9 1.453125 8.546875 1 8 1 Z M 8 13C7.449219 13 7 13.449219 7 14C7 14.550781 7.449219 15 8 15C8.550781 15 9 14.550781 9 14C9 13.449219 8.550781 13 8 13 Z M 8 4C9.664063 4 11 5.335938 11 7L11 10.996094C11 10.996094 10.988281 11.472656 11.234375 11.96875C11.238281 11.980469 11.246094 11.988281 11.25 12L4.726563 12C4.730469 11.992188 4.738281 11.984375 4.742188 11.980469C4.992188 11.488281 5 11.015625 5 11.015625L5 7C5 5.335938 6.335938 4 8 4Z" fill="#FFFFFF" />
</svg>