<svg xmlns="http://www.w3.org/2000/svg" viewBox="0 0 50 50">
  <path d="M28 3.59375L28 14.0625C13.863281 14.414063 6.625 21.742188 3.21875 29.0625C-0.226563 36.460938 -0.0078125 43.710938 0 43.90625C0 43.90625 0 43.9375 0 43.9375C0 43.9375 0 44.03125 0 44.03125L2 44.0625C2 44.0625 2.320313 39.644531 5.8125 35.125C9.203125 30.738281 15.660156 26.347656 28 26.09375L28 36.40625L29.59375 35.1875L48.59375 20.8125L49.65625 20L48.59375 19.1875L29.59375 4.8125 Z M 30 7.625L46.34375 20L30 32.375L30 24L29 24C15.449219 24 8.070313 28.894531 4.21875 33.875C3.71875 34.519531 3.417969 35.144531 3.03125 35.78125C3.480469 33.917969 4.085938 31.96875 5.03125 29.9375C8.289063 22.9375 14.832031 16 29 16L30 16Z" fill="#D1D1D1" />
</svg>