<svg xmlns="http://www.w3.org/2000/svg" viewBox="0 0 80 80"><path fill="#8bb7f0" d="M2.506,77.5c0.273-11.625,10.034-21,21.994-21h15c11.96,0,21.721,9.375,21.994,21H2.506z"/><path fill="#4e7ab5" d="M39.5,57c11.512,0,20.94,8.883,21.476,20L3.024,77C3.56,65.883,12.988,57,24.5,57H39.5 M39.5,56 h-15C12.074,56,2,65.85,2,78v0h60v0C62,65.85,51.926,56,39.5,56L39.5,56z"/><path fill="#deb974" d="M32,62.5c-5.959,0-8.211-5.207-8.5-5.943v-10.32h17v10.32C40.211,57.293,37.959,62.5,32,62.5z"/><path fill="#967a44" d="M40,46.737v9.72C39.624,57.35,37.404,62,32,62c-5.44,0-7.621-4.623-8-5.54v-9.723H40 M41,45.737H23 v10.911c0,0,2.281,6.352,9,6.352c6.719,0,9-6.352,9-6.352V45.737L41,45.737z"/><path fill="#f5ce85" d="M32,54.5c-1.343,0-2.639-0.495-3.648-1.393l-0.091-0.081l-0.117-0.03 C21.288,51.237,16.5,45.07,16.5,38V19.403c0-3.929,3.196-7.125,7.125-7.125h16.749c3.929,0,7.125,3.196,7.125,7.125V38 c0,7.07-4.788,13.237-11.644,14.996l-0.117,0.03l-0.091,0.081C34.639,54.005,33.343,54.5,32,54.5z"/><path fill="#967a44" d="M40.375,12.778c3.653,0,6.625,2.972,6.625,6.625V38c0,6.842-4.633,12.81-11.268,14.512l-0.235,0.06 l-0.181,0.161C34.398,53.55,33.22,54,32,54c-1.22,0-2.398-0.45-3.316-1.267l-0.181-0.161l-0.235-0.06 C21.633,50.81,17,44.842,17,38V19.403c0-3.653,2.972-6.625,6.625-6.625H40.375 M40.375,11.778H23.625 c-4.211,0-7.625,3.414-7.625,7.625V38c0,7.46,5.112,13.708,12.019,15.48C29.079,54.423,30.47,55,32,55h0 c1.53,0,2.921-0.577,3.981-1.52C42.888,51.708,48,45.459,48,38V19.403C48,15.192,44.586,11.778,40.375,11.778L40.375,11.778z"/><g><path fill="#a6714e" d="M48,55.5c-4.16,0-7.992-2.44-9.467-3.505c1.791-0.946,5.967-3.883,5.967-10.709v-9.448 c0-4.592-4.004-8.071-4.175-8.217l-0.431-0.369l-0.312,0.474c-0.042,0.065-4.375,6.498-13.65,7.779 c-4.443,0.613-6.432,3.838-6.432,6.762v3.019c0,6.933,4.147,9.8,5.951,10.718C23.976,53.075,20.175,55.5,16,55.5 c-4.194,0-7.849-2.465-9.157-3.463c1.482-1.059,5.228-4.199,5.228-8.895c0-1.811-0.348-3.752-0.716-5.808 C10.934,34.992,10.5,32.569,10.5,30c0-7.521,2.208-13.702,6.387-17.876C20.518,8.498,25.53,6.5,31,6.5 c7.897,0,10.439,5.471,10.543,5.704l0.132,0.295L42,12.5c7.309,0,11.5,5.649,11.5,15.5c0,2.729-0.541,5.739-1.063,8.65 C51.955,39.334,51.5,41.869,51.5,44c0,4.172,3.955,5.796,5.653,6.3C55.992,51.763,52.579,55.5,48,55.5z"/><path fill="#7a4f34" d="M31,7c7.548,0,9.987,5.188,10.086,5.405L41.349,13H42c6.991,0,11,5.467,11,15 c0,2.684-0.536,5.673-1.055,8.563C51.459,39.269,51,41.825,51,44c0,3.69,2.922,5.705,5.288,6.563C54.878,52.185,51.872,55,48,55 c-3.52,0-6.816-1.824-8.538-2.97C41.553,50.712,45,47.584,45,41.285v-9.448c0-4.82-4.172-8.445-4.35-8.597l-0.861-0.734 l-0.624,0.944c-0.042,0.063-4.27,6.311-13.302,7.559C22.558,31.465,19,33.931,19,38.267v3.019c0,6.389,3.417,9.472,5.517,10.762 C22.803,53.194,19.54,55,16,55c-3.573,0-6.757-1.87-8.319-2.969c1.763-1.391,4.89-4.48,4.89-8.889 c0-1.855-0.352-3.818-0.724-5.896C11.43,34.925,11,32.525,11,30C11,13.023,21.774,7,31,7 M31,6c-10.577,0-21,7.388-21,24 c0,4.907,1.571,9.364,1.571,13.143C11.571,48.655,6,52,6,52s4.508,4,10,4c5.587,0,10.423-4.113,10.423-4.113S20,49.836,20,41.285 c0-1.226,0-1.12,0-3.019c0-2.707,1.883-5.699,6-6.267c9.631-1.33,14-8,14-8s4,3.422,4,7.837c0,2.089,0,6.017,0,9.448 c0,8.388-6.429,10.604-6.429,10.604S42.451,56,48,56c6.01,0,10-6,10-6s-6-1.07-6-6c0-4.38,2-10.705,2-16c0-11.522-5.533-16-12-16 C42,12,39.344,6,31,6L31,6z"/></g><g><path fill="#f78f8f" d="M40.873,39.472c1.018-1.882,2.333-4.83,3.624-8.136L44.628,31l-0.278-0.23 C40.578,27.636,38.5,23.457,38.5,19c0-9.098,8.748-16.5,19.5-16.5S77.5,9.902,77.5,19S68.752,35.5,58,35.5 c-1.347,0-2.709-0.122-4.048-0.361l-0.177-0.032l-0.157,0.088C50.329,37.053,45.149,39.201,40.873,39.472z"/><path fill="#c74343" d="M58,3c10.477,0,19,7.178,19,16s-8.523,16-19,16c-1.318,0-2.651-0.119-3.96-0.353l-0.354-0.063 l-0.313,0.177c-3.015,1.702-7.633,3.652-11.632,4.13c0.955-1.885,2.099-4.496,3.222-7.372l0.262-0.672l-0.555-0.461 C41.014,27.348,39,23.305,39,19C39,10.177,47.523,3,58,3 M58,2C46.954,2,38,9.611,38,19c0,4.766,2.314,9.068,6.031,12.154 C42.798,34.312,41.204,37.98,40,40c4.196,0,9.777-2.062,13.864-4.368C55.199,35.87,56.581,36,58,36c11.046,0,20-7.611,20-17 S69.046,2,58,2L58,2z"/></g></svg>